<?xml version="1.0" standalone="no"?>
<!DOCTYPE svg PUBLIC "-//W3C//DTD SVG 20010904//EN"
 "http://www.w3.org/TR/2001/REC-SVG-20010904/DTD/svg10.dtd">
<svg version="1.0" xmlns="http://www.w3.org/2000/svg"
 width="770.000000pt" height="770.000000pt" viewBox="0 0 770.000000 770.000000"
 preserveAspectRatio="xMidYMid meet">
<metadata>
Created by potrace 1.16, written by Peter Selinger 2001-2019
</metadata>
<g transform="translate(0.000000,770.000000) scale(0.100000,-0.100000)"
fill="#000000" stroke="none">
<path d="M3450 7689 c-169 -15 -337 -45 -555 -100 -174 -44 -309 -86 -440
-139 -170 -68 -191 -78 -340 -152 -525 -262 -1012 -672 -1365 -1148 -377 -510
-626 -1111 -719 -1740 -43 -289 -43 -844 0 -1125 125 -824 495 -1560 1077
-2149 495 -501 1068 -833 1772 -1026 44 -13 246 -55 325 -69 203 -35 226 -36
650 -36 454 0 474 1 743 55 277 55 531 133 787 243 28 11 127 60 220 107 574
290 1071 727 1437 1265 293 430 498 915 593 1405 16 80 27 139 47 260 9 53 13
203 13 510 0 307 -4 457 -13 510 -54 321 -84 451 -152 665 -278 874 -885 1647
-1667 2122 -336 203 -768 382 -1093 453 -30 7 -71 16 -90 20 -179 39 -294 58
-440 70 -135 12 -653 11 -790 -1z m532 -888 c123 -47 227 -185 236 -312 4 -58
5 -59 51 -85 432 -251 783 -897 940 -1729 100 -526 118 -1127 50 -1665 -36
-288 -130 -724 -176 -819 -31 -63 -110 -68 -142 -9 -13 22 -13 34 -3 70 98
347 149 617 184 973 16 167 16 750 0 910 -55 536 -150 944 -308 1315 -135 316
-334 599 -525 746 -75 57 -111 74 -117 54 -2 -8 -32 -42 -66 -76 -82 -81 -148
-108 -266 -108 -65 0 -99 5 -142 23 -81 31 -159 106 -200 189 -31 62 -33 74
-33 167 0 87 3 107 27 157 29 63 93 137 145 169 99 61 232 73 345 30z m-1067
-1240 c113 -18 133 -24 153 -46 31 -36 28 -71 -8 -107 -26 -25 -36 -29 -63
-24 -245 45 -590 59 -782 32 -147 -22 -266 -55 -373 -106 -104 -50 -160 -88
-228 -158 -114 -115 -172 -255 -181 -432 -10 -192 36 -369 157 -618 73 -148
78 -173 42 -205 -28 -25 -59 -29 -91 -13 -21 12 -43 44 -85 126 -120 234 -174
418 -183 625 -11 256 58 453 216 619 166 173 385 274 700 322 135 20 561 12
726 -15z m2610 4 c458 -75 745 -291 851 -640 24 -80 27 -106 28 -240 1 -108
-4 -173 -17 -233 -57 -267 -199 -554 -412 -837 -115 -152 -138 -175 -174 -175
-43 0 -60 9 -77 42 -21 40 -13 59 71 163 212 264 360 543 422 794 33 133 37
317 10 421 -90 339 -408 535 -922 567 -95 5 -112 9 -132 29 -32 32 -30 78 3
111 26 26 27 26 143 20 64 -4 157 -14 206 -22z m-913 -75 c25 -26 29 -36 24
-63 -3 -18 -15 -39 -25 -48 -11 -9 -78 -30 -150 -48 -314 -76 -666 -209 -996
-376 -531 -268 -956 -574 -1330 -956 -432 -442 -672 -869 -701 -1250 l-7 -86
68 -6 c38 -4 90 -17 121 -31 72 -33 154 -112 190 -183 26 -53 29 -67 29 -163
0 -99 -2 -109 -33 -172 -143 -291 -552 -284 -691 11 -23 49 -26 69 -26 156 0
89 3 107 29 163 21 45 47 80 91 120 l62 57 6 115 c10 199 62 383 172 605 371
753 1300 1523 2350 1948 237 96 682 234 763 236 14 1 37 -12 54 -29z m-639
-1563 c158 -93 193 -288 75 -422 -111 -126 -301 -129 -411 -5 -54 59 -70 102
-71 185 0 56 5 80 27 121 31 60 93 117 151 138 64 24 173 16 229 -17z m-1809
-585 c189 -186 276 -263 446 -393 599 -457 1297 -790 1955 -933 504 -109 924
-97 1243 36 59 24 72 34 66 47 -49 111 -56 196 -23 293 66 203 282 314 481
247 112 -37 183 -102 233 -212 63 -136 33 -305 -73 -414 -117 -121 -286 -152
-440 -82 l-64 29 -81 -39 c-669 -321 -1887 -72 -2971 606 -339 212 -603 421
-878 693 -149 147 -168 170 -168 198 0 44 38 82 81 82 29 0 53 -20 193 -158z
m600 -1204 c14 -13 41 -64 61 -118 170 -442 441 -802 705 -935 146 -74 312
-98 450 -66 78 19 224 90 296 144 95 72 232 222 313 342 41 61 81 116 89 123
24 18 66 15 96 -9 41 -32 35 -72 -25 -165 -309 -475 -698 -683 -1099 -587 -85
20 -235 91 -319 150 -252 180 -486 514 -650 931 -49 122 -52 162 -15 191 34
27 67 27 98 -1z"/>
<path d="M3771 6655 c-86 -27 -151 -117 -151 -210 0 -177 195 -282 342 -185
154 102 119 343 -56 395 -59 18 -77 18 -135 0z"/>
<path d="M1396 2490 c-88 -27 -156 -120 -156 -214 1 -143 134 -249 271 -216
136 33 208 187 148 316 -44 93 -161 144 -263 114z"/>
<path d="M6140 2487 c-53 -17 -123 -93 -139 -149 -41 -144 66 -283 216 -282
80 1 144 37 188 108 25 41 30 60 30 110 -2 157 -145 261 -295 213z"/>
</g>
</svg>
