<?xml version="1.0" standalone="no"?>
<!DOCTYPE svg PUBLIC "-//W3C//DTD SVG 20010904//EN"
 "http://www.w3.org/TR/2001/REC-SVG-20010904/DTD/svg10.dtd">
<svg version="1.0" xmlns="http://www.w3.org/2000/svg"
 width="300.000000pt" height="169.000000pt" viewBox="0 0 300.000000 169.000000"
 preserveAspectRatio="xMidYMid meet">
<metadata>
Created by potrace 1.10, written by Peter Selinger 2001-2011
</metadata>
<g transform="translate(0.000000,169.000000) scale(0.100000,-0.100000)"
fill="#000000" stroke="none">
<path d="M0 1682 c0 -10 93 -70 175 -113 28 -14 95 -52 150 -84 55 -32 125
-72 155 -88 30 -17 105 -58 165 -92 61 -35 128 -73 150 -85 81 -45 131 -74
189 -108 l59 -35 -61 -28 c-198 -89 -238 -236 -97 -351 38 -31 119 -73 178
-92 14 -5 17 -13 13 -33 -3 -16 -8 -62 -12 -105 -8 -93 13 -165 59 -209 38
-37 63 -43 138 -35 59 6 108 32 199 105 14 11 31 21 39 21 7 0 41 -21 75 -46
154 -117 267 -119 333 -7 26 45 28 55 27 160 0 62 3 113 8 113 8 0 42 -19 263
-145 55 -32 129 -74 165 -93 36 -20 82 -46 102 -59 21 -13 40 -23 44 -23 3 0
18 -8 32 -18 15 -11 61 -37 102 -59 41 -22 118 -64 170 -93 129 -72 149 -82
160 -78 9 3 -1021 588 -1064 604 -17 6 -18 4 -10 -37 5 -24 9 -84 9 -134 0
-72 -4 -97 -20 -124 -31 -53 -65 -73 -121 -73 -67 1 -95 13 -191 83 l-83 60
-89 -64 c-102 -74 -169 -97 -223 -78 -78 28 -114 107 -105 230 3 42 9 92 12
111 l6 35 -73 28 c-40 15 -95 43 -121 62 -165 122 -93 276 167 359 10 4 17 8
15 10 -2 2 -233 133 -514 291 -280 158 -525 296 -542 307 -18 11 -33 15 -33
10z"/>
<path d="M1186 1450 c-44 -14 -75 -49 -91 -104 -18 -60 -19 -97 -3 -199 11
-72 14 -78 45 -97 23 -14 40 -17 56 -11 28 10 107 23 107 17 0 -3 -9 -21 -21
-40 l-20 -35 21 -11 c25 -13 23 -15 64 47 l31 48 113 3 c62 1 120 -2 131 -7
10 -6 39 -46 64 -88 74 -127 73 -123 42 -182 l-28 -50 22 -19 23 -18 -23 -38
-23 -39 25 6 c13 3 41 9 62 12 20 4 37 10 37 14 0 3 -18 16 -40 29 l-39 22 21
37 22 36 22 -59 c17 -45 30 -64 59 -82 l37 -24 72 26 c85 31 164 88 189 136
23 44 18 107 -13 149 -31 44 -113 97 -188 122 l-64 21 8 57 c33 214 -14 326
-135 323 -64 -1 -118 -25 -204 -90 l-68 -52 -63 50 c-99 78 -187 109 -250 90z
m19 -23 c-28 -18 -71 -60 -77 -77 -3 -8 -8 -12 -12 -9 -20 18 58 99 94 98 11
0 10 -3 -5 -12z m145 -30 c30 -17 73 -48 95 -69 22 -21 44 -38 48 -38 10 0 94
57 121 82 25 23 101 58 123 57 15 -1 15 -2 -2 -8 -39 -12 -91 -44 -145 -89
-30 -25 -57 -47 -59 -48 -24 -18 104 -184 143 -184 11 0 28 -5 36 -10 13 -8
12 -11 -5 -24 -19 -14 -19 -14 4 -64 13 -27 33 -62 46 -78 20 -25 25 -27 39
-15 15 13 21 8 16 -14 -8 -31 -7 -82 2 -98 13 -24 3 -33 -18 -16 -14 12 -19
10 -40 -16 -31 -39 -40 -27 -14 19 30 54 25 83 -27 173 -82 138 -66 128 -201
129 -134 2 -158 -6 -187 -60 -11 -20 -23 -36 -27 -36 -12 0 -10 13 7 37 13 18
13 22 0 33 -22 18 -18 30 9 30 24 0 96 74 141 143 23 35 11 64 -42 103 -21 16
-44 35 -51 42 -7 6 -20 12 -28 12 -8 0 -14 5 -14 11 0 5 -4 7 -10 4 -5 -3 -10
-2 -10 2 0 5 -12 14 -27 21 -26 10 -26 11 -3 6 14 -4 50 -20 80 -37z m480 27
c38 -23 66 -72 50 -87 -10 -9 -11 -9 -8 3 6 19 -62 89 -79 83 -7 -3 -13 0 -13
6 0 16 17 14 50 -5z m-31 -25 c58 -20 80 -100 62 -220 -7 -41 -16 -78 -20 -82
-7 -7 -178 16 -187 25 -1 2 -28 35 -58 73 l-57 70 36 31 c55 49 110 85 152
100 21 7 38 13 39 14 1 0 15 -5 33 -11z m-481 -23 c26 -13 68 -43 94 -66 l48
-42 -48 -61 c-26 -33 -52 -67 -57 -74 -9 -12 -192 -49 -201 -41 -1 2 -8 35
-14 73 -16 103 4 213 42 228 32 13 92 5 136 -17z m-200 -76 c-1 -34 -18 -53
-18 -21 0 20 9 51 15 51 2 0 3 -14 3 -30z m780 -55 c0 -47 -3 -83 -7 -81 -11
7 -7 -77 4 -95 13 -21 48 -39 74 -39 12 0 21 -4 21 -10 0 -5 7 -10 14 -10 23
0 104 -58 132 -95 20 -27 23 -38 15 -52 -9 -16 -10 -15 -11 9 0 37 -72 97
-165 138 -70 31 -76 32 -99 17 -13 -9 -29 -35 -37 -61 -7 -24 -17 -43 -21 -40
-4 3 -1 21 7 41 20 48 19 82 -2 89 -47 15 -57 22 -23 17 58 -8 77 30 85 177 2
30 4 61 4 68 1 6 3 12 5 12 3 0 4 -38 4 -85z m-778 -48 c0 -16 -4 -26 -10 -22
-5 3 -10 23 -10 43 0 28 3 33 10 22 5 -8 10 -28 10 -43z m22 -105 c12 -23 13
-23 113 -5 21 3 27 2 20 -5 -5 -6 -27 -13 -47 -15 -21 -2 -41 -6 -44 -10 -9
-8 -61 19 -66 35 -3 7 -2 22 0 33 4 14 7 15 9 5 3 -8 9 -25 15 -38z m603 -12
c3 -5 1 -10 -4 -10 -6 0 -11 5 -11 10 0 6 2 10 4 10 3 0 8 -4 11 -10z m48 -36
c41 -7 41 -3 9 -88 l-19 -48 -39 68 c-51 91 -51 87 -18 80 16 -3 46 -8 67 -12z
m170 -48 c108 -45 167 -100 167 -155 0 -49 -128 -145 -221 -166 -26 -6 -28 -3
-58 74 -17 44 -31 88 -31 98 0 16 7 37 49 146 13 33 20 33 94 3z m197 -174 c0
-29 -63 -95 -120 -126 -28 -15 -54 -26 -56 -23 -3 3 12 13 33 23 49 24 123 98
123 124 0 11 5 20 10 20 6 0 10 -8 10 -18z m-317 -99 c2 -13 6 -26 10 -29 9
-10 9 -24 -1 -24 -9 0 -32 58 -32 80 0 21 19 -2 23 -27z m-78 -53 c3 -5 1 -10
-4 -10 -6 0 -11 5 -11 10 0 6 2 10 4 10 3 0 8 -4 11 -10z m195 -4 c0 -3 -4 -8
-10 -11 -5 -3 -10 -1 -10 4 0 6 5 11 10 11 6 0 10 -2 10 -4z"/>
<path d="M1455 1203 c-37 -44 -48 -63 -42 -70 3 -2 23 18 44 46 21 27 40 50
43 50 5 0 72 -86 78 -101 2 -5 -36 -8 -84 -8 -48 0 -85 -3 -81 -6 3 -3 40 -6
82 -6 108 -1 118 11 62 80 -23 28 -49 52 -57 52 -8 0 -28 -17 -45 -37z"/>
<path d="M352 1042 c-17 -16 -34 -40 -37 -53 -5 -21 -11 -24 -50 -22 -128 4
-168 -165 -69 -294 34 -45 57 -55 96 -45 18 5 53 5 77 0 59 -11 74 -5 111 44
36 51 38 81 5 119 -25 31 -25 40 3 96 16 31 15 33 -8 58 -13 14 -32 25 -43 25
-15 0 -18 5 -12 30 15 70 -21 90 -73 42z m68 -8 c0 -18 -62 -84 -79 -84 -21 0
-11 42 18 71 32 32 61 38 61 13z m48 -101 l24 -15 -21 -22 c-31 -33 -29 -98 5
-125 31 -24 27 -46 -18 -97 -31 -35 -55 -42 -90 -23 -15 8 -32 8 -64 -1 -57
-16 -82 -1 -118 71 -28 57 -35 133 -15 172 26 51 83 70 141 48 15 -5 36 -4 58
5 38 13 62 10 98 -13z"/>
<path d="M2749 1055 c-1 -5 -2 -14 -3 -20 -1 -5 -12 -41 -25 -78 -24 -70 -20
-96 12 -84 20 7 57 120 46 138 -5 8 -6 23 -4 34 3 11 2 14 -1 6 -5 -11 -8 -11
-15 0 -5 8 -9 10 -10 4z m7 -97 c-7 -18 -16 -40 -19 -48 -4 -8 -4 2 -2 24 6
42 12 56 25 56 5 0 3 -15 -4 -32z"/>
<path d="M2613 1017 c-12 -21 -110 -30 -117 -11 -3 8 -11 14 -17 14 -8 0 -6
-7 4 -18 16 -17 15 -20 -8 -42 -14 -13 -25 -32 -25 -42 0 -16 7 -17 93 -11 50
3 103 9 117 13 l25 7 -37 35 c-27 26 -34 38 -25 47 6 6 8 13 5 17 -4 3 -10 -1
-15 -9z m-31 -62 c5 -24 3 -25 -38 -23 -29 1 -44 6 -44 15 0 16 12 17 29 1 11
-11 13 -9 8 10 -4 18 -1 22 18 22 16 0 24 -7 27 -25z m38 0 c0 -8 -4 -15 -9
-15 -13 0 -22 16 -14 24 11 11 23 6 23 -9z"/>
<path d="M1050 1001 c-66 -26 -145 -80 -164 -113 -25 -42 -13 -80 41 -127 41
-36 117 -74 168 -83 22 -3 55 55 76 134 11 39 9 50 -20 126 -18 45 -38 82 -44
82 -7 -1 -32 -9 -57 -19z m96 -101 c16 -53 16 -57 -7 -124 -12 -37 -29 -70
-36 -73 -17 -7 -98 24 -138 51 -54 37 -72 64 -67 98 6 40 40 71 127 114 l70
34 17 -22 c10 -13 25 -48 34 -78z"/>
<path d="M1180 1017 c0 -15 34 -97 40 -97 8 0 35 59 29 63 -37 27 -69 42 -69
34z"/>
<path d="M1466 959 c-29 -8 -66 -36 -66 -50 0 -6 193 -119 205 -119 2 0 7 15
10 33 17 87 -65 161 -149 136z m105 -48 c22 -22 29 -38 27 -60 -1 -17 -4 -31
-6 -31 -4 0 -153 80 -161 86 -2 2 2 10 9 19 8 9 29 15 57 15 36 0 50 -6 74
-29z"/>
<path d="M1275 897 l-28 -54 53 -93 c77 -135 69 -130 203 -130 125 0 123 -1
165 73 12 21 22 40 22 42 0 3 -18 14 -41 26 l-41 20 -22 -20 c-56 -53 -142
-43 -184 19 -19 29 -23 44 -19 81 6 45 5 47 -33 68 -21 11 -40 21 -43 21 -2 0
-17 -24 -32 -53z m78 9 c12 -10 17 -27 17 -64 0 -43 5 -57 31 -87 17 -19 45
-39 63 -43 38 -10 97 4 125 29 19 18 23 18 51 4 l29 -15 -20 -35 c-12 -19 -26
-38 -33 -42 -6 -4 -59 -9 -118 -10 -122 -2 -111 -8 -177 105 -47 82 -51 95
-32 140 14 34 35 40 64 18z"/>
<path d="M2560 888 c-57 -5 -106 -10 -107 -12 -2 -2 0 -47 4 -102 7 -90 10
-99 28 -99 16 0 19 -6 17 -31 -4 -38 20 -63 42 -45 10 8 13 23 9 47 -5 32 -4
34 21 34 25 0 27 -3 25 -35 -4 -43 13 -64 36 -45 11 9 15 26 13 49 -3 31 0 36
20 39 18 3 22 10 22 40 0 61 -12 172 -19 171 -3 -1 -53 -6 -111 -11z m106 -95
c6 -76 5 -82 -15 -92 -15 -9 -21 -21 -21 -47 0 -21 -4 -33 -10 -29 -5 3 -10
17 -10 29 0 33 -23 50 -49 36 -14 -7 -21 -21 -21 -41 0 -17 -4 -28 -10 -24 -5
3 -6 13 -3 22 4 10 -3 24 -20 37 -22 18 -27 31 -33 93 -7 86 -3 89 101 92 38
2 72 4 74 7 9 8 11 -4 17 -83z"/>
<path d="M2549 824 c-18 -22 -18 -52 0 -67 12 -9 13 -9 7 1 -5 9 4 12 33 12
45 0 57 -19 14 -21 -16 -1 -42 -3 -60 -5 -21 -1 -33 3 -36 12 -3 9 -4 7 -3 -3
1 -15 11 -18 55 -18 29 -1 60 4 69 11 13 10 11 16 -18 53 -37 46 -42 48 -61
25z m37 -15 c10 -17 -13 -36 -27 -22 -12 12 -4 33 11 33 5 0 12 -5 16 -11z"/>
<path d="M2397 873 c-11 -11 -8 -141 3 -148 23 -14 40 17 40 74 0 63 -20 97
-43 74z m20 -45 c-3 -8 -6 -5 -6 6 -1 11 2 17 5 13 3 -3 4 -12 1 -19z m-5 -50
c-8 -8 -9 -4 -5 13 4 13 8 18 11 10 2 -7 -1 -18 -6 -23z"/>
<path d="M1197 726 c-9 -29 -17 -57 -17 -63 0 -10 109 -37 117 -29 3 3 -68
131 -79 142 -3 2 -12 -20 -21 -50z m63 -58 c0 -11 -32 -10 -48 1 -9 5 -11 17
-6 36 l7 29 23 -30 c13 -16 24 -32 24 -36z"/>
<path d="M1156 591 c-3 -5 -9 -57 -13 -114 -9 -148 10 -187 89 -187 45 0 127
42 183 93 l46 42 -57 70 c-30 39 -57 71 -59 73 -1 1 -31 7 -66 13 -35 5 -76
12 -91 15 -14 3 -29 1 -32 -5z m144 -32 c25 -6 48 -25 83 -68 26 -32 47 -63
47 -67 0 -5 -20 -24 -44 -42 -100 -75 -182 -93 -212 -47 -14 22 -16 42 -11
126 3 54 8 103 11 108 6 10 68 5 126 -10z"/>
<path d="M1740 585 c-70 -12 -77 -15 -117 -60 -24 -26 -52 -60 -63 -75 l-20
-28 47 -42 c87 -78 199 -112 237 -74 25 24 33 45 40 99 8 67 -14 189 -34 191
-8 1 -49 -4 -90 -11z m91 -32 c6 -16 12 -65 13 -110 1 -77 -1 -83 -27 -111
-27 -29 -51 -32 -97 -15 -8 4 -18 6 -22 5 -3 -1 -12 5 -18 13 -7 8 -17 15 -22
15 -5 0 -16 6 -24 14 -7 8 -26 24 -40 35 l-27 21 26 37 c53 78 70 91 143 106
38 9 72 16 77 16 4 1 12 -11 18 -26z"/>
<path d="M1456 515 c20 -25 40 -45 44 -45 4 0 24 20 44 45 l37 45 -81 0 -81 0
37 -45z m74 19 c0 -6 -7 -17 -15 -24 -12 -10 -18 -10 -30 0 -24 20 -17 35 15
35 17 0 30 -5 30 -11z"/>
</g>
</svg>
